<?xml version="1.0" encoding="iso-8859-1"?>
<!-- Generator: Adobe Illustrator 19.0.0, SVG Export Plug-In . SVG Version: 6.00 Build 0)  -->
<svg version="1.1" id="Layer_1" xmlns="http://www.w3.org/2000/svg" xmlns:xlink="http://www.w3.org/1999/xlink" x="0px" y="0px"
	 viewBox="0 0 512 512" style="enable-background:new 0 0 512 512;" xml:space="preserve">
<g>
	<g>
		<path d="M493.695,59.303c-2.403-34.462-20.666-49.179-22.741-50.743L459.604,0L34.933,415.643
			c-10.81,10.579-16.806,24.735-16.888,39.86c-0.082,15.125,5.764,29.343,16.459,40.038C45.129,506.166,59.221,512,74.23,512
			c0.132,0,0.267,0,0.399-0.001c15.156-0.105,29.323-6.145,39.892-17.008l158.202-162.619l50.864,4.652l5.476-5.478
			c63.168-63.168,108.845-120.317,135.761-169.86C486,122.71,495.714,88.263,493.695,59.303z M90.831,471.944
			c-4.353,4.475-10.188,6.963-16.43,7.004c-0.055,0.001-0.11,0.001-0.164,0.001c-6.182,0-11.987-2.404-16.363-6.779
			c-4.406-4.406-6.813-10.261-6.779-16.491c0.034-6.23,2.504-12.06,6.956-16.417l156.17-152.85l28.943,28.943L90.831,471.944z
			 M311.14,302.698l-37.306-3.413l-35.991-35.992L458.135,47.685c1.383,4.237,2.473,9.625,2.718,16.337
			C463.498,136.476,370.669,242.443,311.14,302.698z"/>
	</g>
</g>
<g>
</g>
<g>
</g>
<g>
</g>
<g>
</g>
<g>
</g>
<g>
</g>
<g>
</g>
<g>
</g>
<g>
</g>
<g>
</g>
<g>
</g>
<g>
</g>
<g>
</g>
<g>
</g>
<g>
</g>
</svg>
